<svg version="1.1" id="Layer_1" xmlns="http://www.w3.org/2000/svg" xmlns:xlink="http://www.w3.org/1999/xlink" x="0px" y="0px"
	 width="100%" viewBox="0 0 1920 1080" enable-background="new 0 0 1920 1080" xml:space="preserve">

M1118.000000,1081.000000 
	C745.333374,1081.000000 373.166809,1081.000000 1.000150,1081.000000 
	C1.000100,721.000122 1.000100,361.000275 1.000050,1.000295 
	C640.999756,1.000196 1280.999512,1.000196 1920.999512,1.000098 
	C1920.999634,360.999664 1920.999634,720.999329 1920.999756,1080.999512 
	C1653.500000,1081.000000 1386.000000,1081.000000 1118.000000,1081.000000 
M1371.877563,492.949310 
	C1372.213379,482.331451 1372.740479,471.715179 1372.829834,461.095245 
	C1372.914673,451.013763 1368.898193,447.132843 1359.127808,447.131042 
	C1328.810791,447.125397 1298.493530,447.099731 1268.176880,447.187408 
	C1266.422119,447.192474 1264.670044,448.134552 1262.266357,448.773254 
	C1261.824585,448.757080 1261.382690,448.740906 1260.494873,448.219879 
	C1257.672363,447.793030 1256.433594,448.808472 1256.905884,451.812683 
	C1257.187988,453.606110 1257.117798,455.463135 1257.117676,457.291565 
	C1257.116333,550.287048 1257.234497,643.283020 1256.902100,736.277344 
	C1256.867554,745.940674 1263.689941,749.218201 1271.272949,748.057007 
	C1276.330566,747.282532 1281.499268,746.947083 1286.620605,746.923035 
	C1310.285278,746.812012 1333.950806,746.853577 1357.615967,746.899902 
	C1363.570557,746.911560 1369.839722,747.902344 1372.667114,740.058167 
	C1368.060181,733.046387 1369.683838,725.005615 1371.576538,716.436584 
	C1371.714355,715.795837 1371.973145,715.155029 1371.972778,714.514343 
	C1371.954468,676.634460 1371.914673,638.754639 1371.872070,600.187378 
	C1371.872925,599.500000 1371.873657,598.812622 1371.959595,597.167419 
	C1371.973022,580.980042 1372.015015,564.792542 1371.953857,548.605469 
	C1371.948120,547.071899 1371.296631,545.540771 1370.897583,543.071106 
	C1370.913818,535.713501 1370.930054,528.355835 1371.578613,520.440063 
	C1371.679443,511.583374 1371.780273,502.726715 1371.877563,492.949310 
M1775.630371,619.391418 
	C1775.825928,620.943787 1776.021484,622.496155 1776.403320,624.910095 
	C1776.342529,627.254944 1776.281860,629.599731 1775.585083,632.505554 
	C1775.426025,633.301575 1775.130127,634.097229 1775.128418,634.893616 
	C1775.098267,649.084167 1775.076904,663.274841 1775.150024,677.465088 
	C1775.156250,678.661682 1775.847534,679.854736 1776.408325,681.964355 
	C1776.408325,702.889587 1776.408325,723.814819 1776.408325,744.924866 
	C1812.467529,744.924866 1848.348999,744.924866 1884.581787,744.924866 
	C1884.581787,743.655090 1884.581787,742.679749 1884.581787,741.704407 
	C1884.581177,676.228210 1884.647827,610.751892 1884.536011,545.275879 
	C1884.505127,527.181946 1881.403442,509.646820 1872.854736,493.432220 
	C1862.128052,473.086884 1846.158936,458.605469 1824.424438,450.751801 
	C1807.196655,444.526733 1789.491333,443.367920 1771.432739,445.935486 
	C1746.782227,449.440216 1726.121704,460.209747 1710.038208,479.386261 
	C1701.832031,489.170563 1695.658936,500.140289 1691.294189,513.170715 
	C1688.622437,506.269958 1686.514160,500.242615 1683.984131,494.397888 
	C1676.001709,475.958221 1664.664062,460.486938 1645.838623,451.642731 
	C1629.046021,443.753479 1611.506470,443.135101 1593.710571,446.444794 
	C1577.613281,449.438568 1562.837891,455.760620 1551.327881,467.751099 
	C1544.734009,474.620148 1539.185181,482.492218 1532.625977,489.679474 
	C1527.594971,485.737122 1525.332397,480.765472 1525.874268,474.212067 
	C1526.339478,468.587036 1525.970215,462.893036 1525.970825,457.229553 
	C1525.971680,448.586731 1524.364624,447.019226 1515.404175,447.018616 
	C1489.085571,447.016815 1462.767090,447.048828 1436.448608,446.996521 
	C1433.990234,446.991638 1431.490479,446.682037 1429.083862,446.167694 
	C1423.446411,444.962738 1415.967896,449.180237 1416.921753,456.101227 
	C1418.071167,464.442291 1418.928467,472.900330 1418.942261,481.309296 
	C1419.084229,567.594177 1419.108154,653.879456 1418.905762,740.164062 
	C1418.885864,748.675476 1423.312256,749.716980 1429.582031,748.690247 
	C1434.459839,747.891479 1439.405396,747.093140 1444.327515,747.049805 
	C1465.147705,746.866333 1485.970215,746.932739 1506.791626,746.999512 
	C1509.583008,747.008484 1512.390015,747.885437 1515.159424,747.748413 
	C1519.198608,747.548584 1523.867188,749.995483 1527.685547,745.233765 
	C1528.105225,745.147461 1528.525024,745.061096 1529.624634,744.623657 
	C1530.386841,742.640808 1531.811035,740.659363 1531.815063,738.674927 
	C1531.934204,681.347412 1531.816772,624.019104 1532.065430,566.692444 
	C1532.088745,561.307373 1533.132812,555.283997 1535.727295,550.703857 
	C1539.593506,543.878784 1545.921753,538.921143 1553.176270,535.339600 
	C1561.718628,531.122314 1577.394897,532.540100 1583.724976,538.752747 
	C1590.536011,545.437256 1597.603882,552.110046 1596.196899,563.108154 
	C1596.061401,564.167725 1596.846313,565.319336 1597.066284,566.454895 
	C1597.774902,570.113953 1598.993774,573.784180 1599.002319,577.452454 
	C1599.127441,631.780457 1599.084351,686.108704 1599.095459,740.436951 
	C1599.096680,746.168579 1602.942871,749.412476 1608.199829,748.756653 
	C1614.919312,747.918396 1621.685913,747.085693 1628.442505,746.991943 
	C1646.018677,746.748047 1663.600464,746.903809 1681.179932,746.917236 
	C1682.842285,746.918518 1684.505981,747.017212 1686.166748,747.112427 
	C1690.628540,747.368164 1695.097412,747.954102 1699.547974,747.833557 
	C1704.464844,747.700439 1708.960693,742.962524 1708.922485,738.725037 
	C1708.875122,733.479248 1708.973145,728.231567 1708.884033,722.986877 
	C1708.601196,706.362244 1708.296265,689.737854 1707.930786,673.114868 
	C1707.638672,659.823853 1707.122925,646.536438 1706.962036,633.244385 
	C1706.902100,628.291870 1707.786621,623.333618 1707.855835,618.372620 
	C1708.011353,607.239807 1707.711914,596.098206 1707.999146,584.970581 
	C1708.283936,573.935181 1707.340210,562.913940 1711.600464,552.047729 
	C1714.403931,544.897034 1718.935913,540.110168 1725.202271,537.174988 
	C1732.313599,533.843872 1739.757935,532.517578 1748.110840,534.618286 
	C1759.086182,537.378540 1765.256836,544.631897 1769.872925,553.771179 
	C1771.907349,557.798889 1772.314209,562.627258 1773.697021,567.017456 
	C1774.157593,568.479858 1775.356323,569.709656 1776.404419,571.961365 
	C1776.342041,587.622803 1776.279663,603.284180 1775.630371,619.391418 
M688.838928,661.006470 
	C686.038757,660.642578 683.229187,660.339478 680.439941,659.905396 
	C652.520630,655.560425 635.313843,637.899048 632.071350,609.867004 
	C631.651306,606.236023 630.024780,606.073853 627.236877,606.078613 
	C595.575439,606.133057 563.913879,606.113098 532.252319,606.112915 
	C530.961670,606.112915 529.671082,606.112854 527.105469,606.112854 
	C528.412048,617.825928 529.129822,629.066345 531.000305,640.111511 
	C536.222290,670.947205 550.862854,696.484802 575.595337,715.868347 
	C594.914795,731.009521 617.281128,739.497375 641.036926,744.553284 
	C674.240173,751.619873 707.734741,752.133423 741.297974,747.864380 
	C765.492981,744.786865 788.703674,738.283081 809.843689,725.640503 
	C833.650513,711.403076 850.568665,691.599243 858.944153,664.846802 
	C863.986816,648.739685 865.342224,632.275574 864.211853,615.538635 
	C862.228516,586.171997 850.923889,561.444214 827.901367,542.499451 
	C809.247986,527.149963 787.691956,517.410461 764.678894,511.228455 
	C742.868408,505.369476 720.637817,501.082489 698.618347,495.989960 
	C686.494995,493.186066 674.471008,490.035370 663.859192,483.102966 
	C645.372742,471.026337 646.291321,445.557281 665.992615,435.691650 
	C684.696411,426.325592 704.487488,426.560059 724.226501,431.895325 
	C739.968262,436.150208 749.589233,446.819580 753.449341,462.638550 
	C754.103760,465.320312 754.481262,468.069672 754.930603,470.486328 
	C789.852966,470.486328 824.252808,470.486328 858.741211,470.486328 
	C858.345947,450.800781 854.834534,432.209229 846.402893,414.751221 
	C831.112854,383.092590 805.475159,363.198669 773.153320,351.256836 
	C747.210754,341.671844 720.193176,339.073303 692.709229,339.746002 
	C659.188110,340.566528 627.246582,347.288727 598.025085,364.436432 
	C575.263123,377.793671 557.588379,395.944519 546.792358,420.241913 
	C538.286316,439.385529 536.134033,459.623657 538.181213,480.268555 
	C540.446472,503.112152 549.072449,523.127441 565.884033,539.277832 
	C584.273315,556.943848 606.380310,568.147461 630.606201,574.670654 
	C653.682373,580.884399 677.253662,585.250488 700.584290,590.530518 
	C715.801270,593.974365 730.889465,597.819641 743.798828,607.264465 
	C754.591553,615.160583 757.334412,630.777039 750.015137,641.935913 
	C744.524597,650.306702 736.471497,654.895508 727.250488,657.807678 
	C715.013550,661.672241 702.422058,661.760315 688.838928,661.006470 
M906.961121,656.500000 
	C906.961121,685.951477 906.961121,715.402954 906.961121,745.022095 
	C943.144043,745.022095 978.880554,745.022095 1015.039246,745.022095 
	C1015.039246,743.036804 1015.039246,741.244629 1015.039246,739.452515 
	C1015.039307,708.122192 1015.017029,676.791809 1015.046875,645.461487 
	C1015.068970,622.299866 1014.494568,599.112915 1015.373718,575.982422 
	C1016.710022,540.823120 1043.924683,526.435486 1073.715820,535.408997 
	C1080.947510,537.587341 1086.855835,542.147278 1091.279541,548.618774 
	C1097.867310,558.255798 1099.701660,569.103149 1099.726685,580.325317 
	C1099.845337,633.486694 1099.779663,686.648376 1099.779663,739.809998 
	C1099.779663,741.561279 1099.779663,743.312561 1099.779663,744.929443 
	C1136.060059,744.929443 1171.642334,744.929443 1207.428955,744.929443 
	C1207.487427,743.668701 1207.572510,742.689148 1207.572632,741.709595 
	C1207.581543,679.882202 1207.700928,618.054504 1207.525391,556.227600 
	C1207.460083,533.207703 1203.058594,511.113159 1191.063232,491.022705 
	C1181.386841,474.816620 1168.246582,462.383179 1151.155762,454.187531 
	C1135.027100,446.453339 1117.949341,444.353241 1100.260376,444.711182 
	C1067.811523,445.367828 1042.472900,458.683105 1024.754272,486.030121 
	C1020.789612,492.149261 1017.092590,498.441895 1012.616150,505.721863 
	C1012.616150,451.533234 1012.616150,398.501068 1012.616150,345.368896 
	C977.177917,345.368896 942.255920,345.368896 906.961121,345.368896 
	C906.961121,448.925140 906.961121,552.212585 906.961121,656.500000 
M471.651123,427.500061 
	C471.651123,381.742371 471.651123,335.984711 471.651123,290.279480 
	C404.689056,290.279480 338.451996,290.279480 272.207703,290.279480 
	C272.207703,318.206207 272.207703,345.800873 272.207703,374.013794 
	C313.670227,374.013794 354.883423,374.013794 395.978210,374.013794 
	C395.978210,485.683228 395.978210,596.732422 395.978210,708.248108 
	C354.489685,708.248108 313.411530,708.248108 272.232483,708.248108 
	C272.232483,736.293213 272.232483,763.869812 272.232483,791.622559 
	C338.736298,791.622559 404.960602,791.622559 471.650818,791.622559 
	C471.650818,670.394592 471.650818,549.447327 471.651123,427.500061 
M34.515217,289.957275 
	C30.586893,289.957275 26.658571,289.957275 22.704597,289.957275 
	C22.704597,457.549286 22.704597,624.465820 22.704597,791.568970 
	C89.275864,791.568970 155.493866,791.568970 221.733795,791.568970 
	C221.733795,763.656494 221.733795,736.079102 221.733795,708.028198 
	C180.181152,708.028198 138.936295,708.028198 97.495316,708.028198 
	C97.495316,596.481628 97.495316,485.410889 97.495316,373.873535 
	C139.025497,373.873535 180.275848,373.873535 221.736435,373.873535 
	C221.736435,345.693390 221.736435,317.980560 221.736435,289.957184 
	C159.455276,289.957184 97.483238,289.957184 34.515217,289.957275 
M1307.047607,420.568573 
	C1318.302490,421.733337 1329.093506,420.319458 1339.498169,415.554047 
	C1367.442383,402.755554 1377.082886,368.807739 1359.831543,343.425354 
	C1346.943481,324.462982 1319.372681,316.094971 1295.351807,324.001678 
	C1272.726074,331.449249 1256.390381,352.972382 1260.880859,379.645172 
	C1264.058594,398.521210 1282.602783,417.911804 1307.047607,420.568573 
z"/>
<path fill="#0F1117" opacity="1.000000" stroke="none" 
	d="
M1533.165894,489.912720 
	C1539.185181,482.492218 1544.734009,474.620148 1551.327881,467.751099 
	C1562.837891,455.760620 1577.613281,449.438568 1593.710571,446.444794 
	C1611.506470,443.135101 1629.046021,443.753479 1645.838623,451.642731 
	C1664.664062,460.486938 1676.001709,475.958221 1683.984131,494.397888 
	C1686.514160,500.242615 1688.622437,506.269958 1691.294189,513.170715 
	C1695.658936,500.140289 1701.832031,489.170563 1710.038208,479.386261 
	C1726.121704,460.209747 1746.782227,449.440216 1771.432739,445.935486 
	C1789.491333,443.367920 1807.196655,444.526733 1824.424438,450.751801 
	C1846.158936,458.605469 1862.128052,473.086884 1872.854736,493.432220 
	C1881.403442,509.646820 1884.505127,527.181946 1884.536011,545.275879 
	C1884.647827,610.751892 1884.581177,676.228210 1884.581787,741.704407 
	C1884.581787,742.679749 1884.581787,743.655090 1884.581787,744.924866 
	C1848.348999,744.924866 1812.467529,744.924866 1776.408325,744.924866 
	C1776.408325,723.814819 1776.408325,702.889587 1776.486328,681.133667 
	C1776.449951,664.183533 1776.335571,648.064087 1776.221191,631.944580 
	C1776.281860,629.599731 1776.342529,627.254944 1776.478271,624.194946 
	C1776.441162,621.968384 1776.329102,620.456970 1776.217163,618.945618 
	C1776.279663,603.284180 1776.342041,587.622803 1776.436768,571.152588 
	C1775.943481,566.236206 1775.861328,562.012512 1774.821045,558.039734 
	C1767.336304,529.459351 1736.408691,525.021362 1719.443848,537.249329 
	C1707.852539,545.604004 1704.478149,557.978149 1704.442383,571.369202 
	C1704.293213,627.182495 1704.380371,682.996521 1704.380859,738.810242 
	C1704.380981,740.758911 1704.380859,742.707581 1704.380859,744.750366 
	C1669.874756,744.750366 1635.830688,744.750366 1601.619141,744.750366 
	C1601.619141,742.411438 1601.619141,740.415649 1601.619141,738.419861 
	C1601.619019,684.272217 1601.661133,630.124451 1601.576782,575.976929 
	C1601.562866,567.007080 1600.614868,558.259155 1596.620972,549.834778 
	C1586.103149,527.650146 1555.331787,526.216553 1541.360352,539.497192 
	C1531.553223,548.819519 1528.957153,560.702637 1528.952759,573.534912 
	C1528.933472,630.681519 1528.944580,687.828125 1528.944702,744.974731 
	C1528.525024,745.061096 1528.105225,745.147461 1526.909790,745.195923 
	C1491.204102,745.158020 1456.274292,745.158020 1421.372559,745.158020 
	C1421.372559,646.058350 1421.372559,547.512878 1421.372559,449.185303 
	C1454.642700,449.185303 1487.563232,449.185303 1520.656860,449.185303 
	C1522.007568,468.679230 1523.337158,487.869141 1524.666870,507.059082 
	C1524.940552,507.089722 1525.214355,507.120392 1525.488037,507.151031 
	C1528.047363,501.404938 1530.606689,495.658813 1533.165894,489.912720 
z"/>
<path fill="#0F1117" opacity="1.000000" stroke="none" 
	d="
M689.307312,661.055542 
	C702.422058,661.760315 715.013550,661.672241 727.250488,657.807678 
	C736.471497,654.895508 744.524597,650.306702 750.015137,641.935913 
	C757.334412,630.777039 754.591553,615.160583 743.798828,607.264465 
	C730.889465,597.819641 715.801270,593.974365 700.584290,590.530518 
	C677.253662,585.250488 653.682373,580.884399 630.606201,574.670654 
	C606.380310,568.147461 584.273315,556.943848 565.884033,539.277832 
	C549.072449,523.127441 540.446472,503.112152 538.181213,480.268555 
	C536.134033,459.623657 538.286316,439.385529 546.792358,420.241913 
	C557.588379,395.944519 575.263123,377.793671 598.025085,364.436432 
	C627.246582,347.288727 659.188110,340.566528 692.709229,339.746002 
	C720.193176,339.073303 747.210754,341.671844 773.153320,351.256836 
	C805.475159,363.198669 831.112854,383.092590 846.402893,414.751221 
	C854.834534,432.209229 858.345947,450.800781 858.741211,470.486328 
	C824.252808,470.486328 789.852966,470.486328 754.930603,470.486328 
	C754.481262,468.069672 754.103760,465.320312 753.449341,462.638550 
	C749.589233,446.819580 739.968262,436.150208 724.226501,431.895325 
	C704.487488,426.560059 684.696411,426.325592 665.992615,435.691650 
	C646.291321,445.557281 645.372742,471.026337 663.859192,483.102966 
	C674.471008,490.035370 686.494995,493.186066 698.618347,495.989960 
	C720.637817,501.082489 742.868408,505.369476 764.678894,511.228455 
	C787.691956,517.410461 809.247986,527.149963 827.901367,542.499451 
	C850.923889,561.444214 862.228516,586.171997 864.211853,615.538635 
	C865.342224,632.275574 863.986816,648.739685 858.944153,664.846802 
	C850.568665,691.599243 833.650513,711.403076 809.843689,725.640503 
	C788.703674,738.283081 765.492981,744.786865 741.297974,747.864380 
	C707.734741,752.133423 674.240173,751.619873 641.036926,744.553284 
	C617.281128,739.497375 594.914795,731.009521 575.595337,715.868347 
	C550.862854,696.484802 536.222290,670.947205 531.000305,640.111511 
	C529.129822,629.066345 528.412048,617.825928 527.105469,606.112854 
	C529.671082,606.112854 530.961670,606.112915 532.252319,606.112915 
	C563.913879,606.113098 595.575439,606.133057 627.236877,606.078613 
	C630.024780,606.073853 631.651306,606.236023 632.071350,609.867004 
	C635.313843,637.899048 652.520630,655.560425 680.439941,659.905396 
	C683.229187,660.339478 686.038757,660.642578 689.307312,661.055542 
z"/>
<path fill="#0F1117" opacity="1.000000" stroke="none" 
	d="
M906.961121,656.000000 
	C906.961121,552.212585 906.961121,448.925140 906.961121,345.368896 
	C942.255920,345.368896 977.177917,345.368896 1012.616150,345.368896 
	C1012.616150,398.501068 1012.616150,451.533234 1012.616150,505.721863 
	C1017.092590,498.441895 1020.789612,492.149261 1024.754272,486.030121 
	C1042.472900,458.683105 1067.811523,445.367828 1100.260376,444.711182 
	C1117.949341,444.353241 1135.027100,446.453339 1151.155762,454.187531 
	C1168.246582,462.383179 1181.386841,474.816620 1191.063232,491.022705 
	C1203.058594,511.113159 1207.460083,533.207703 1207.525391,556.227600 
	C1207.700928,618.054504 1207.581543,679.882202 1207.572632,741.709595 
	C1207.572510,742.689148 1207.487427,743.668701 1207.428955,744.929443 
	C1171.642334,744.929443 1136.060059,744.929443 1099.779663,744.929443 
	C1099.779663,743.312561 1099.779663,741.561279 1099.779663,739.809998 
	C1099.779663,686.648376 1099.845337,633.486694 1099.726685,580.325317 
	C1099.701660,569.103149 1097.867310,558.255798 1091.279541,548.618774 
	C1086.855835,542.147278 1080.947510,537.587341 1073.715820,535.408997 
	C1043.924683,526.435486 1016.710022,540.823120 1015.373718,575.982422 
	C1014.494568,599.112915 1015.068970,622.299866 1015.046875,645.461487 
	C1015.017029,676.791809 1015.039307,708.122192 1015.039246,739.452515 
	C1015.039246,741.244629 1015.039246,743.036804 1015.039246,745.022095 
	C978.880554,745.022095 943.144043,745.022095 906.961121,745.022095 
	C906.961121,715.402954 906.961121,685.951477 906.961121,656.000000 
z"/>
<path fill="#F39D0B" opacity="1.000000" stroke="none" 
	d="
M471.650970,428.000061 
	C471.650818,549.447327 471.650818,670.394592 471.650818,791.622559 
	C404.960602,791.622559 338.736298,791.622559 272.232483,791.622559 
	C272.232483,763.869812 272.232483,736.293213 272.232483,708.248108 
	C313.411530,708.248108 354.489685,708.248108 395.978210,708.248108 
	C395.978210,596.732422 395.978210,485.683228 395.978210,374.013794 
	C354.883423,374.013794 313.670227,374.013794 272.207703,374.013794 
	C272.207703,345.800873 272.207703,318.206207 272.207703,290.279480 
	C338.451996,290.279480 404.689056,290.279480 471.651123,290.279480 
	C471.651123,335.984711 471.651123,381.742371 471.650970,428.000061 
z"/>
<path fill="#F49D0B" opacity="1.000000" stroke="none" 
	d="
M35.013206,289.957214 
	C97.483238,289.957184 159.455276,289.957184 221.736435,289.957184 
	C221.736435,317.980560 221.736435,345.693390 221.736435,373.873535 
	C180.275848,373.873535 139.025497,373.873535 97.495316,373.873535 
	C97.495316,485.410889 97.495316,596.481628 97.495316,708.028198 
	C138.936295,708.028198 180.181152,708.028198 221.733795,708.028198 
	C221.733795,736.079102 221.733795,763.656494 221.733795,791.568970 
	C155.493866,791.568970 89.275864,791.568970 22.704597,791.568970 
	C22.704597,624.465820 22.704597,457.549286 22.704597,289.957275 
	C26.658571,289.957275 30.586893,289.957275 35.013206,289.957214 
z"/>
<path fill="#0F1117" opacity="1.000000" stroke="none" 
	d="
M1260.940918,448.724731 
	C1261.382690,448.740906 1261.824585,448.757080 1263.050293,448.833923 
	C1298.602051,448.894562 1333.369751,448.894562 1368.043823,448.894562 
	C1368.043823,547.932556 1368.043823,646.328735 1368.043823,744.804077 
	C1332.156494,744.804077 1296.580078,744.804077 1260.647461,744.804077 
	C1260.647461,742.903320 1260.647461,741.269409 1260.647461,739.635498 
	C1260.646973,644.320496 1260.644897,549.005493 1260.658325,453.690521 
	C1260.658569,452.035248 1260.842651,450.380005 1260.940918,448.724731 
z"/>
<path fill="#0F1117" opacity="1.000000" stroke="none" 
	d="
M1306.604492,420.494263 
	C1282.602783,417.911804 1264.058594,398.521210 1260.880859,379.645172 
	C1256.390381,352.972382 1272.726074,331.449249 1295.351807,324.001678 
	C1319.372681,316.094971 1346.943481,324.462982 1359.831543,343.425354 
	C1377.082886,368.807739 1367.442383,402.755554 1339.498169,415.554047 
	C1329.093506,420.319458 1318.302490,421.733337 1306.604492,420.494263 
z"/>
<path fill="#2A2C33" opacity="1.000000" stroke="none" 
	d="
M1529.284668,744.799194 
	C1528.944580,687.828125 1528.933472,630.681519 1528.952759,573.534912 
	C1528.957153,560.702637 1531.553223,548.819519 1541.360352,539.497192 
	C1555.331787,526.216553 1586.103149,527.650146 1596.620972,549.834778 
	C1600.614868,558.259155 1601.562866,567.007080 1601.576782,575.976929 
	C1601.661133,630.124451 1601.619019,684.272217 1601.619141,738.419861 
	C1601.619141,740.415649 1601.619141,742.411438 1601.619141,744.750366 
	C1635.830688,744.750366 1669.874756,744.750366 1704.380859,744.750366 
	C1704.380859,742.707581 1704.380981,740.758911 1704.380859,738.810242 
	C1704.380371,682.996521 1704.293213,627.182495 1704.442383,571.369202 
	C1704.478149,557.978149 1707.852539,545.604004 1719.443848,537.249329 
	C1736.408691,525.021362 1767.336304,529.459351 1774.821045,558.039734 
	C1775.861328,562.012512 1775.943481,566.236206 1776.343506,570.694763 
	C1775.356323,569.709656 1774.157593,568.479858 1773.697021,567.017456 
	C1772.314209,562.627258 1771.907349,557.798889 1769.872925,553.771179 
	C1765.256836,544.631897 1759.086182,537.378540 1748.110840,534.618286 
	C1739.757935,532.517578 1732.313599,533.843872 1725.202271,537.174988 
	C1718.935913,540.110168 1714.403931,544.897034 1711.600464,552.047729 
	C1707.340210,562.913940 1708.283936,573.935181 1707.999146,584.970581 
	C1707.711914,596.098206 1708.011353,607.239807 1707.855835,618.372620 
	C1707.786621,623.333618 1706.902100,628.291870 1706.962036,633.244385 
	C1707.122925,646.536438 1707.638672,659.823853 1707.930786,673.114868 
	C1708.296265,689.737854 1708.601196,706.362244 1708.884033,722.986877 
	C1708.973145,728.231567 1708.875122,733.479248 1708.922485,738.725037 
	C1708.960693,742.962524 1704.464844,747.700439 1699.547974,747.833557 
	C1695.097412,747.954102 1690.628540,747.368164 1686.166748,747.112427 
	C1684.505981,747.017212 1682.842285,746.918518 1681.179932,746.917236 
	C1663.600464,746.903809 1646.018677,746.748047 1628.442505,746.991943 
	C1621.685913,747.085693 1614.919312,747.918396 1608.199829,748.756653 
	C1602.942871,749.412476 1599.096680,746.168579 1599.095459,740.436951 
	C1599.084351,686.108704 1599.127441,631.780457 1599.002319,577.452454 
	C1598.993774,573.784180 1597.774902,570.113953 1597.066284,566.454895 
	C1596.846313,565.319336 1596.061401,564.167725 1596.196899,563.108154 
	C1597.603882,552.110046 1590.536011,545.437256 1583.724976,538.752747 
	C1577.394897,532.540100 1561.718628,531.122314 1553.176270,535.339600 
	C1545.921753,538.921143 1539.593506,543.878784 1535.727295,550.703857 
	C1533.132812,555.283997 1532.088745,561.307373 1532.065430,566.692444 
	C1531.816772,624.019104 1531.934204,681.347412 1531.815063,738.674927 
	C1531.811035,740.659363 1530.386841,742.640808 1529.284668,744.799194 
z"/>
<path fill="#313337" opacity="1.000000" stroke="none" 
	d="
M1260.718018,448.472290 
	C1260.842651,450.380005 1260.658569,452.035248 1260.658325,453.690521 
	C1260.644897,549.005493 1260.646973,644.320496 1260.647461,739.635498 
	C1260.647461,741.269409 1260.647461,742.903320 1260.647461,744.804077 
	C1296.580078,744.804077 1332.156494,744.804077 1368.043823,744.804077 
	C1368.043823,646.328735 1368.043823,547.932556 1368.043823,448.894562 
	C1333.369751,448.894562 1298.602051,448.894562 1263.375488,448.767548 
	C1264.670044,448.134552 1266.422119,447.192474 1268.176880,447.187408 
	C1298.493530,447.099731 1328.810791,447.125397 1359.127808,447.131042 
	C1368.898193,447.132843 1372.914673,451.013763 1372.829834,461.095245 
	C1372.740479,471.715179 1372.213379,482.331451 1371.594727,493.728424 
	C1371.190063,503.337769 1371.068115,512.168030 1370.946167,520.998230 
	C1370.930054,528.355835 1370.913818,535.713501 1370.918213,544.007935 
	C1370.936890,560.931580 1370.906250,576.918457 1370.974609,592.904907 
	C1370.982056,594.646301 1371.560791,596.385193 1371.874512,598.125244 
	C1371.873657,598.812622 1371.872925,599.500000 1371.590088,600.849609 
	C1371.180176,602.820068 1370.940918,604.128296 1370.940430,605.436707 
	C1370.926636,642.621887 1370.937012,679.807007 1370.943237,716.992188 
	C1369.683838,725.005615 1368.060181,733.046387 1372.667114,740.058167 
	C1369.839722,747.902344 1363.570557,746.911560 1357.615967,746.899902 
	C1333.950806,746.853577 1310.285278,746.812012 1286.620605,746.923035 
	C1281.499268,746.947083 1276.330566,747.282532 1271.272949,748.057007 
	C1263.689941,749.218201 1256.867554,745.940674 1256.902100,736.277344 
	C1257.234497,643.283020 1257.116333,550.287048 1257.117676,457.291565 
	C1257.117798,455.463135 1257.187988,453.606110 1256.905884,451.812683 
	C1256.433594,448.808472 1257.672363,447.793030 1260.718018,448.472290 
z"/>
<path fill="#1B1D23" opacity="1.000000" stroke="none" 
	d="
M1532.895996,489.796082 
	C1530.606689,495.658813 1528.047363,501.404938 1525.488037,507.151031 
	C1525.214355,507.120392 1524.940552,507.089722 1524.666870,507.059082 
	C1523.337158,487.869141 1522.007568,468.679230 1520.656860,449.185303 
	C1487.563232,449.185303 1454.642700,449.185303 1421.372559,449.185303 
	C1421.372559,547.512878 1421.372559,646.058350 1421.372559,745.158020 
	C1456.274292,745.158020 1491.204102,745.158020 1526.593140,745.274597 
	C1523.867188,749.995483 1519.198608,747.548584 1515.159424,747.748413 
	C1512.390015,747.885437 1509.583008,747.008484 1506.791626,746.999512 
	C1485.970215,746.932739 1465.147705,746.866333 1444.327515,747.049805 
	C1439.405396,747.093140 1434.459839,747.891479 1429.582031,748.690247 
	C1423.312256,749.716980 1418.885864,748.675476 1418.905762,740.164062 
	C1419.108154,653.879456 1419.084229,567.594177 1418.942261,481.309296 
	C1418.928467,472.900330 1418.071167,464.442291 1416.921753,456.101227 
	C1415.967896,449.180237 1423.446411,444.962738 1429.083862,446.167694 
	C1431.490479,446.682037 1433.990234,446.991638 1436.448608,446.996521 
	C1462.767090,447.048828 1489.085571,447.016815 1515.404175,447.018616 
	C1524.364624,447.019226 1525.971680,448.586731 1525.970825,457.229553 
	C1525.970215,462.893036 1526.339478,468.587036 1525.874268,474.212067 
	C1525.332397,480.765472 1527.594971,485.737122 1532.895996,489.796082 
z"/>
<path fill="#000027" opacity="1.000000" stroke="none" 
	d="
M1371.259888,716.714355 
	C1370.937012,679.807007 1370.926636,642.621887 1370.940430,605.436707 
	C1370.940918,604.128296 1371.180176,602.820068 1371.592529,601.193237 
	C1371.914673,638.754639 1371.954468,676.634460 1371.972778,714.514343 
	C1371.973145,715.155029 1371.714355,715.795837 1371.259888,716.714355 
z"/>
<path fill="#2A2C33" opacity="1.000000" stroke="none" 
	d="
M1775.903076,632.225098 
	C1776.335571,648.064087 1776.449951,664.183533 1776.392456,680.676270 
	C1775.847534,679.854736 1775.156250,678.661682 1775.150024,677.465088 
	C1775.076904,663.274841 1775.098267,649.084167 1775.128418,634.893616 
	C1775.130127,634.097229 1775.426025,633.301575 1775.903076,632.225098 
z"/>
<path fill="#000028" opacity="1.000000" stroke="none" 
	d="
M1371.916992,597.646362 
	C1371.560791,596.385193 1370.982056,594.646301 1370.974609,592.904907 
	C1370.906250,576.918457 1370.936890,560.931580 1370.941895,544.476685 
	C1371.296631,545.540771 1371.948120,547.071899 1371.953857,548.605469 
	C1372.015015,564.792542 1371.973022,580.980042 1371.916992,597.646362 
z"/>
<path fill="#000025" opacity="1.000000" stroke="none" 
	d="
M1371.262451,520.719116 
	C1371.068115,512.168030 1371.190063,503.337769 1371.596680,494.188782 
	C1371.780273,502.726715 1371.679443,511.583374 1371.262451,520.719116 
z"/>
<path fill="#2A2C33" opacity="1.000000" stroke="none" 
	d="
M1775.923828,619.168518 
	C1776.329102,620.456970 1776.441162,621.968384 1776.385254,623.764160 
	C1776.021484,622.496155 1775.825928,620.943787 1775.923828,619.168518 
z"/>
</svg>